<?xml version="1.0" encoding="UTF-8"?>
<!DOCTYPE svg PUBLIC "-//W3C//DTD SVG 1.1//EN" "http://www.w3.org/Graphics/SVG/1.1/DTD/svg11.dtd">
<!-- Creator: CorelDRAW -->
<svg xmlns="http://www.w3.org/2000/svg" xml:space="preserve" width="76.2mm" height="76.2mm" version="1.1" style="shape-rendering:geometricPrecision; text-rendering:geometricPrecision; image-rendering:optimizeQuality; fill-rule:evenodd; clip-rule:evenodd"
viewBox="0 0 7620 7620"
 xmlns:xlink="http://www.w3.org/1999/xlink"
 xmlns:xodm="http://www.corel.com/coreldraw/odm/2003">
 <defs>
  <style type="text/css">
   <![CDATA[
    .fil1 {fill:none}
    .fil0 {fill:#273E74}
    .fil2 {fill:white}
   ]]>
  </style>
 </defs>
 <g id="Layer_x0020_1">
  <metadata id="CorelCorpID_0Corel-Layer"/>
  <g id="_1953448089392">
  </g>
  <g id="_1953448071104">
  </g>
  <g id="_1953448066976">
   <polygon class="fil0" points="997.72,2211.26 2507.27,1091.23 3841.56,2006.71 5242.2,1024.4 6714.6,2143.07 6695.14,5269.39 5204.99,6292.03 3841.56,5269.39 2546.26,6301.77 997.72,5269.39 "/>
   <polygon class="fil1" points="997.72,2211.26 2507.27,1091.23 3841.56,2006.71 5242.2,1024.4 6714.6,2143.07 6695.14,5269.39 5204.99,6292.03 3841.56,5269.39 2546.26,6301.77 997.72,5269.39 "/>
   <polygon class="fil2" points="1258.82,2439.08 2385.65,3124.02 2370.91,5863.82 1236.73,5127.32 "/>
   <polygon class="fil2" points="2643.44,3160.85 3703.95,2424.36 3726.1,5046.34 2658.18,5871.16 "/>
   <polygon class="fil2" points="1442.93,2218.18 2518.2,1437.42 3600.88,2173.94 2562.43,2917.84 "/>
   <polygon class="fil2" points="4085.6,2160.42 5228.6,1356.42 6289.03,2151.89 5191.69,2939.97 "/>
   <polygon class="fil2" points="3998.4,2447.82 5048.73,3177.95 5031.76,5837.59 3984.69,5052.3 "/>
   <polygon class="fil2" points="5315.76,3164.25 6440.8,2373.42 6451.96,5130.27 5315.76,5870.97 "/>
  </g>
 </g>
</svg>
